<svg xmlns="http://www.w3.org/2000/svg" xmlns:xlink="http://www.w3.org/1999/xlink" width="500" zoomAndPan="magnify" viewBox="0 0 375 374.999991" height="500" preserveAspectRatio="xMidYMid meet" version="1.0"><defs><g/><clipPath id="0ce13d44ca"><path d="M 163.175781 163 L 280.171875 163 L 280.171875 187.15625 L 163.175781 187.15625 Z M 163.175781 163 " clip-rule="nonzero"/></clipPath><clipPath id="66594ef049"><path d="M 37.5 164 L 129 164 L 129 187.441406 L 37.5 187.441406 Z M 37.5 164 " clip-rule="nonzero"/></clipPath><clipPath id="b356d9eff2"><path d="M 42 124.441406 L 315 124.441406 L 315 176 L 42 176 Z M 42 124.441406 " clip-rule="nonzero"/></clipPath><clipPath id="5cdb4cac66"><path d="M 42.5625 189.183594 L 117.5625 189.183594 L 117.5625 204 L 42.5625 204 Z M 42.5625 189.183594 " clip-rule="nonzero"/></clipPath><clipPath id="a15f7b20f9"><rect x="0" width="151" y="0" height="12"/></clipPath></defs><rect x="-37.5" width="450" fill="#ffffff" y="-37.499999" height="449.999989" fill-opacity="1"/><rect x="-37.5" width="450" fill="#000000" y="-37.499999" height="449.999989" fill-opacity="1"/><g clip-path="url(#0ce13d44ca)"><path fill="#000000" d="M 163.332031 187.15625 C 166.761719 173.523438 182.957031 171.875 207.867188 174.171875 C 202.828125 172.066406 197.191406 172.109375 191.144531 171.453125 C 211.621094 161.300781 231.898438 167.851562 243.976562 176.9375 C 263.703125 174.847656 274.234375 179.089844 280.167969 186.507812 C 277.230469 177.785156 265.078125 173.761719 245.652344 173.425781 C 226.613281 161.273438 207.070312 160.90625 187.183594 168.625 C 181.617188 170.3125 176.214844 172.164062 168.921875 171.828125 C 169.175781 172.476562 169.566406 173.050781 170.179688 173.425781 C 164.453125 177.175781 163.179688 181.992188 163.332031 187.15625 Z M 163.332031 187.15625 " fill-opacity="1" fill-rule="evenodd"/></g><g clip-path="url(#66594ef049)"><path fill="#ffffff" d="M 128.609375 182.195312 C 95.726562 184.816406 73.28125 181.703125 60.148438 178.585938 C 63.125 178.589844 66.101562 178.507812 68.984375 178.359375 C 71.722656 178.21875 74.453125 178.019531 77.167969 177.777344 C 79.441406 177.574219 83.640625 177.15625 86.167969 176.824219 C 81.09375 176.003906 76.078125 174.964844 71.152344 173.832031 C 66.785156 172.828125 62.464844 171.71875 58.296875 170.417969 C 54.957031 169.378906 51.925781 168.011719 48.84375 166.714844 C 46.265625 165.628906 42.582031 163.753906 39.730469 165.386719 C 37.515625 166.65625 37.492188 169.265625 37.679688 170.996094 C 38.21875 175.882812 45.527344 178.769531 49.378906 180.527344 C 54.078125 182.664062 59.070312 184.113281 64.128906 185.113281 C 74.527344 187.164062 85.253906 187.402344 95.8125 186.804688 C 104.242188 186.316406 112.609375 185.304688 120.917969 183.777344 C 123.421875 183.324219 126.015625 182.765625 128.609375 182.195312 Z M 128.609375 182.195312 " fill-opacity="1" fill-rule="nonzero"/></g><g clip-path="url(#b356d9eff2)"><path fill="#ffffff" d="M 311.476562 157.550781 C 309.90625 156.832031 308.304688 156.152344 306.664062 155.515625 C 304.722656 154.761719 302.746094 154.066406 300.726562 153.421875 C 295.734375 151.851562 290.664062 150.609375 285.511719 149.707031 C 280.265625 148.789062 274.988281 148.140625 269.675781 147.761719 C 268.34375 147.667969 267.007812 147.5625 265.675781 147.503906 L 263.675781 147.398438 L 261.671875 147.320312 C 261.003906 147.296875 260.335938 147.269531 259.667969 147.253906 L 257.664062 147.21875 C 256.328125 147.183594 254.992188 147.1875 253.65625 147.175781 C 252.988281 147.171875 252.320312 147.171875 251.652344 147.179688 L 249.652344 147.195312 C 248.320312 147.207031 246.988281 147.238281 245.65625 147.261719 L 241.664062 147.386719 C 240.335938 147.441406 239.007812 147.488281 237.679688 147.550781 C 235.027344 147.671875 232.382812 147.808594 229.738281 147.960938 C 228.417969 148.039062 227.097656 148.121094 225.78125 148.210938 L 221.824219 148.472656 C 211.289062 149.183594 200.796875 150.066406 190.332031 150.949219 C 179.871094 151.832031 169.4375 152.730469 159.015625 153.476562 C 153.808594 153.859375 148.601562 154.195312 143.398438 154.484375 C 138.195312 154.769531 133 155.011719 127.804688 155.164062 C 122.609375 155.316406 117.421875 155.425781 112.242188 155.402344 C 111.59375 155.402344 110.945312 155.410156 110.300781 155.402344 L 108.359375 155.382812 C 107.066406 155.367188 105.773438 155.367188 104.480469 155.328125 L 100.605469 155.234375 L 96.738281 155.09375 C 92.664062 154.921875 88.601562 154.679688 84.546875 154.375 C 85.890625 153.847656 87.21875 153.304688 88.523438 152.746094 C 95.367188 149.832031 101.742188 146.597656 108.078125 143.527344 C 114.414062 140.460938 120.722656 137.542969 127.328125 135.257812 C 128.152344 134.980469 128.976562 134.691406 129.8125 134.433594 C 130.230469 134.304688 130.644531 134.167969 131.066406 134.042969 L 132.332031 133.679688 C 133.179688 133.441406 134.019531 133.1875 134.882812 132.984375 L 136.171875 132.660156 C 136.601562 132.554688 137.027344 132.4375 137.464844 132.347656 L 140.078125 131.777344 L 142.722656 131.28125 C 142.945312 131.242188 143.164062 131.195312 143.386719 131.160156 L 144.054688 131.054688 L 145.394531 130.847656 C 145.839844 130.78125 146.285156 130.699219 146.734375 130.648438 L 148.085938 130.480469 L 149.4375 130.308594 C 149.886719 130.253906 150.34375 130.21875 150.792969 130.171875 L 152.15625 130.039062 L 152.835938 129.972656 L 153.523438 129.925781 C 154.433594 129.859375 155.347656 129.785156 156.261719 129.730469 L 159.015625 129.605469 C 162.691406 129.476562 166.390625 129.511719 170.09375 129.664062 C 171.019531 129.710938 171.949219 129.742188 172.875 129.804688 L 175.652344 129.992188 C 177.5 130.152344 179.351562 130.3125 181.199219 130.527344 C 184.890625 130.945312 188.582031 131.449219 192.242188 132.082031 C 199.566406 133.339844 206.816406 134.957031 213.949219 136.871094 C 221.101562 138.761719 228.121094 140.960938 235.089844 143.292969 C 231.835938 141.800781 228.523438 140.375 225.15625 139.011719 C 221.796875 137.644531 218.371094 136.363281 214.898438 135.144531 C 207.84375 132.664062 200.675781 130.574219 193.394531 128.867188 C 185.894531 127.109375 178.308594 125.875 170.636719 125.15625 C 166.753906 124.804688 162.839844 124.609375 158.894531 124.570312 C 154.957031 124.53125 151 124.691406 147.0625 125.035156 L 145.582031 125.167969 C 145.089844 125.207031 144.601562 125.277344 144.109375 125.328125 L 142.636719 125.503906 L 141.902344 125.589844 C 141.65625 125.617188 141.414062 125.660156 141.167969 125.695312 L 138.238281 126.128906 L 135.328125 126.652344 C 134.84375 126.734375 134.363281 126.84375 133.882812 126.945312 L 132.445312 127.253906 C 131.476562 127.449219 130.535156 127.699219 129.585938 127.933594 L 128.160156 128.289062 C 127.6875 128.410156 127.222656 128.546875 126.753906 128.675781 C 125.8125 128.933594 124.894531 129.21875 123.96875 129.496094 C 123.503906 129.632812 123.054688 129.789062 122.597656 129.933594 C 122.136719 130.082031 121.683594 130.230469 121.230469 130.382812 C 120.335938 130.695312 119.421875 130.996094 118.539062 131.324219 L 117.210938 131.8125 L 115.894531 132.3125 C 115.011719 132.640625 114.152344 132.992188 113.285156 133.335938 C 109.835938 134.726562 106.488281 136.199219 103.199219 137.691406 L 93.457031 142.152344 C 90.234375 143.617188 87.019531 145.023438 83.78125 146.34375 C 80.542969 147.660156 77.269531 148.851562 73.957031 149.890625 C 70.644531 150.925781 67.28125 151.761719 63.871094 152.40625 L 42.023438 156.511719 L 64.125 159.828125 C 69.421875 160.621094 74.742188 161.269531 80.09375 161.777344 C 85.441406 162.28125 90.804688 162.613281 96.167969 162.847656 C 106.894531 163.289062 117.621094 163.234375 128.277344 162.816406 C 149.601562 161.988281 170.625 159.816406 191.472656 157.5 C 194.742188 157.136719 198.011719 156.769531 201.273438 156.402344 C 196.734375 157.34375 192.210938 158.324219 187.703125 159.34375 L 172.144531 162.921875 C 166.96875 164.125 161.792969 165.285156 156.609375 166.402344 L 152.722656 167.230469 C 151.425781 167.503906 150.128906 167.769531 148.828125 168.03125 L 144.933594 168.808594 L 142.984375 169.195312 L 141.054688 169.554688 C 135.902344 170.46875 130.6875 171.128906 125.441406 171.570312 C 114.890625 172.414062 104.332031 172.476562 93.769531 171.753906 C 83.152344 171.035156 72.621094 169.628906 62.1875 167.527344 C 72.339844 170.742188 82.851562 172.953125 93.492188 174.371094 C 104.199219 175.777344 114.945312 176.246094 125.734375 175.785156 C 131.144531 175.546875 136.53125 175.027344 141.886719 174.226562 L 143.898438 173.910156 L 145.875 173.574219 C 147.199219 173.355469 148.515625 173.121094 149.832031 172.878906 C 151.148438 172.644531 152.464844 172.402344 153.777344 172.148438 L 157.71875 171.390625 C 162.96875 170.367188 168.191406 169.234375 173.402344 168.101562 L 188.984375 164.59375 C 194.167969 163.414062 199.34375 162.257812 204.527344 161.175781 C 209.707031 160.074219 214.898438 159.070312 220.105469 158.167969 C 225.308594 157.257812 230.53125 156.488281 235.773438 155.832031 L 239.707031 155.375 L 243.644531 154.976562 L 247.59375 154.628906 L 251.546875 154.339844 L 255.503906 154.109375 L 259.46875 153.921875 C 262.125 153.816406 264.78125 153.738281 267.429688 153.664062 C 272.734375 153.535156 278.03125 153.515625 283.324219 153.707031 C 291.164062 153.96875 299.007812 154.761719 306.699219 156.410156 C 309.40625 157.210938 312.066406 158.109375 314.675781 159.109375 C 313.628906 158.570312 312.5625 158.050781 311.476562 157.550781 Z M 311.476562 157.550781 " fill-opacity="1" fill-rule="nonzero"/></g><path fill="#ffffff" d="M 247.1875 184.527344 C 247.855469 181.183594 249.105469 178.066406 250.9375 175.1875 C 252.789062 172.246094 255.082031 169.699219 257.8125 167.546875 C 260.574219 165.367188 263.625 163.710938 266.957031 162.574219 C 267.785156 162.292969 268.636719 162.078125 269.476562 161.832031 C 270.332031 161.640625 271.195312 161.476562 272.054688 161.300781 C 272.921875 161.1875 273.792969 161.09375 274.664062 160.996094 L 275.976562 160.921875 C 276.414062 160.902344 276.855469 160.90625 277.292969 160.898438 C 279.050781 160.917969 280.796875 161.074219 282.53125 161.371094 C 284.261719 161.675781 285.953125 162.121094 287.609375 162.707031 C 290.929688 163.882812 293.957031 165.582031 296.691406 167.800781 C 299.398438 169.988281 301.65625 172.5625 303.46875 175.53125 C 305.257812 178.441406 306.457031 181.574219 307.070312 184.933594 C 306.382812 183.433594 305.605469 181.984375 304.738281 180.578125 C 303.886719 179.203125 302.941406 177.890625 301.902344 176.644531 C 299.859375 174.183594 297.511719 172.058594 294.859375 170.269531 C 293.570312 169.394531 292.21875 168.621094 290.8125 167.945312 C 289.40625 167.269531 287.960938 166.699219 286.46875 166.238281 C 284.980469 165.777344 283.464844 165.425781 281.921875 165.1875 C 280.378906 164.945312 278.828125 164.824219 277.269531 164.8125 C 275.710938 164.800781 274.15625 164.90625 272.613281 165.125 C 271.070312 165.34375 269.546875 165.671875 268.050781 166.113281 C 266.554688 166.558594 265.101562 167.105469 263.6875 167.761719 C 262.269531 168.421875 260.910156 169.175781 259.609375 170.035156 C 256.933594 171.789062 254.558594 173.882812 252.480469 176.316406 C 250.351562 178.816406 248.589844 181.554688 247.1875 184.527344 Z M 247.1875 184.527344 " fill-opacity="1" fill-rule="nonzero"/><g clip-path="url(#5cdb4cac66)"><path fill="#ffffff" d="M 42.597656 189.464844 C 65.292969 200.289062 84.226562 201.84375 107.980469 193.085938 C 110.722656 192.113281 114.449219 190.570312 117.171875 189.464844 C 115.863281 190.492188 114.519531 191.472656 113.132812 192.390625 C 91.042969 207.179688 63.15625 206.808594 42.597656 189.464844 Z M 42.597656 189.464844 " fill-opacity="1" fill-rule="nonzero"/></g><g fill="#ffffff" fill-opacity="1"><g transform="translate(119.28524, 215.060611)"><g><path d="M 10.984375 -1.4375 C 11.378906 -1.4375 11.578125 -1.210938 11.578125 -0.765625 C 11.578125 -0.535156 11.515625 -0.347656 11.390625 -0.203125 C 11.273438 -0.0664062 11.128906 0 10.953125 0 L 1.96875 0 C 1.488281 0 1.25 -0.1875 1.25 -0.5625 L 1.25 -0.6875 L 3.421875 -18.828125 C 3.484375 -19.296875 3.785156 -19.53125 4.328125 -19.53125 C 4.878906 -19.53125 5.15625 -19.347656 5.15625 -18.984375 L 5.15625 -18.828125 L 3.0625 -1.4375 Z M 10.984375 -1.4375 "/></g></g></g><g fill="#ffffff" fill-opacity="1"><g transform="translate(131.019942, 215.060611)"><g><path d="M 2.890625 -18.953125 C 2.960938 -19.335938 3.257812 -19.53125 3.78125 -19.53125 C 4.3125 -19.53125 4.578125 -19.335938 4.578125 -18.953125 L 3.15625 -7.21875 C 3.050781 -6.320312 3 -5.617188 3 -5.109375 C 3 -3.804688 3.289062 -2.820312 3.875 -2.15625 C 4.46875 -1.5 5.5 -1.171875 6.96875 -1.171875 C 7.925781 -1.171875 8.710938 -1.300781 9.328125 -1.5625 C 9.953125 -1.832031 10.4375 -2.265625 10.78125 -2.859375 C 11.132812 -3.460938 11.390625 -4.078125 11.546875 -4.703125 C 11.703125 -5.328125 11.847656 -6.164062 11.984375 -7.21875 L 13.421875 -18.953125 C 13.492188 -19.335938 13.796875 -19.53125 14.328125 -19.53125 C 14.859375 -19.53125 15.125 -19.335938 15.125 -18.953125 L 13.71875 -7.21875 C 13.550781 -5.914062 13.335938 -4.835938 13.078125 -3.984375 C 12.828125 -3.140625 12.457031 -2.375 11.96875 -1.6875 C 11 -0.351562 9.265625 0.3125 6.765625 0.3125 C 4.765625 0.3125 3.34375 -0.132812 2.5 -1.03125 C 1.664062 -1.9375 1.25 -3.273438 1.25 -5.046875 C 1.25 -5.578125 1.300781 -6.300781 1.40625 -7.21875 Z M 2.890625 -18.953125 "/></g></g></g><g fill="#ffffff" fill-opacity="1"><g transform="translate(147.614252, 215.060611)"><g><path d="M 2.421875 -18.984375 C 2.421875 -19.347656 2.71875 -19.53125 3.3125 -19.53125 C 3.59375 -19.53125 3.804688 -19.484375 3.953125 -19.390625 C 4.109375 -19.304688 4.25 -19.140625 4.375 -18.890625 L 7.4375 -11.671875 L 12.796875 -18.953125 C 13.085938 -19.335938 13.414062 -19.53125 13.78125 -19.53125 C 14.300781 -19.53125 14.5625 -19.285156 14.5625 -18.796875 C 14.5625 -18.617188 14.492188 -18.445312 14.359375 -18.28125 L 8.15625 -10.171875 L 11.609375 -2.21875 C 12.035156 -1.226562 12.25 -0.617188 12.25 -0.390625 C 12.25 -0.171875 12.175781 0 12.03125 0.125 C 11.882812 0.25 11.664062 0.3125 11.375 0.3125 C 11.09375 0.3125 10.878906 0.210938 10.734375 0.015625 C 10.585938 -0.171875 10.351562 -0.640625 10.03125 -1.390625 L 6.984375 -8.625 L 0.921875 -0.34375 C 0.609375 0.09375 0.253906 0.3125 -0.140625 0.3125 C -0.347656 0.3125 -0.53125 0.238281 -0.6875 0.09375 C -0.84375 -0.0390625 -0.921875 -0.210938 -0.921875 -0.421875 C -0.921875 -0.628906 -0.84375 -0.828125 -0.6875 -1.015625 L 6.28125 -10.1875 C 3.707031 -15.988281 2.421875 -18.921875 2.421875 -18.984375 Z M 2.421875 -18.984375 "/></g></g></g><g fill="#ffffff" fill-opacity="1"><g transform="translate(161.946717, 215.060611)"><g><path d="M 2.890625 -18.953125 C 2.960938 -19.335938 3.257812 -19.53125 3.78125 -19.53125 C 4.3125 -19.53125 4.578125 -19.335938 4.578125 -18.953125 L 3.15625 -7.21875 C 3.050781 -6.320312 3 -5.617188 3 -5.109375 C 3 -3.804688 3.289062 -2.820312 3.875 -2.15625 C 4.46875 -1.5 5.5 -1.171875 6.96875 -1.171875 C 7.925781 -1.171875 8.710938 -1.300781 9.328125 -1.5625 C 9.953125 -1.832031 10.4375 -2.265625 10.78125 -2.859375 C 11.132812 -3.460938 11.390625 -4.078125 11.546875 -4.703125 C 11.703125 -5.328125 11.847656 -6.164062 11.984375 -7.21875 L 13.421875 -18.953125 C 13.492188 -19.335938 13.796875 -19.53125 14.328125 -19.53125 C 14.859375 -19.53125 15.125 -19.335938 15.125 -18.953125 L 13.71875 -7.21875 C 13.550781 -5.914062 13.335938 -4.835938 13.078125 -3.984375 C 12.828125 -3.140625 12.457031 -2.375 11.96875 -1.6875 C 11 -0.351562 9.265625 0.3125 6.765625 0.3125 C 4.765625 0.3125 3.34375 -0.132812 2.5 -1.03125 C 1.664062 -1.9375 1.25 -3.273438 1.25 -5.046875 C 1.25 -5.578125 1.300781 -6.300781 1.40625 -7.21875 Z M 2.890625 -18.953125 "/></g></g></g><g fill="#ffffff" fill-opacity="1"><g transform="translate(178.541027, 215.060611)"><g><path d="M 2.109375 0.3125 C 1.554688 0.3125 1.28125 0.125 1.28125 -0.25 L 1.28125 -0.34375 L 3.546875 -18.6875 C 3.585938 -18.988281 3.785156 -19.160156 4.140625 -19.203125 C 5.242188 -19.421875 6.695312 -19.53125 8.5 -19.53125 C 10.3125 -19.53125 11.738281 -19.164062 12.78125 -18.4375 C 13.832031 -17.707031 14.359375 -16.625 14.359375 -15.1875 C 14.359375 -13.976562 13.929688 -12.925781 13.078125 -12.03125 C 12.234375 -11.132812 11.070312 -10.546875 9.59375 -10.265625 C 10.570312 -9.847656 11.332031 -9.039062 11.875 -7.84375 C 12.125 -7.25 12.363281 -6.585938 12.59375 -5.859375 C 12.832031 -5.128906 12.984375 -4.6875 13.046875 -4.53125 L 14.421875 -0.46875 C 14.441406 -0.425781 14.453125 -0.335938 14.453125 -0.203125 C 14.453125 -0.078125 14.363281 0.0351562 14.1875 0.140625 C 14.019531 0.253906 13.8125 0.3125 13.5625 0.3125 C 13.09375 0.3125 12.804688 0.148438 12.703125 -0.171875 L 11.140625 -4.796875 C 10.734375 -5.992188 10.367188 -6.929688 10.046875 -7.609375 C 9.722656 -8.285156 9.34375 -8.765625 8.90625 -9.046875 C 8.46875 -9.335938 7.71875 -9.484375 6.65625 -9.484375 L 4.09375 -9.484375 L 2.984375 -0.296875 C 2.953125 -0.0664062 2.867188 0.0859375 2.734375 0.171875 C 2.597656 0.265625 2.390625 0.3125 2.109375 0.3125 Z M 6.921875 -10.953125 C 8.117188 -10.953125 9.316406 -11.265625 10.515625 -11.890625 C 11.109375 -12.210938 11.59375 -12.65625 11.96875 -13.21875 C 12.351562 -13.789062 12.546875 -14.429688 12.546875 -15.140625 C 12.546875 -16.085938 12.148438 -16.828125 11.359375 -17.359375 C 10.578125 -17.898438 9.597656 -18.171875 8.421875 -18.171875 C 7.242188 -18.171875 6.15625 -18.082031 5.15625 -17.90625 L 4.296875 -10.953125 Z M 6.921875 -10.953125 "/></g></g></g><g fill="#ffffff" fill-opacity="1"><g transform="translate(194.19477, 215.060611)"><g><path d="M 1.34375 -18.796875 L 1.328125 -18.984375 C 1.328125 -19.347656 1.625 -19.53125 2.21875 -19.53125 C 2.5 -19.53125 2.707031 -19.484375 2.84375 -19.390625 C 2.976562 -19.304688 3.097656 -19.140625 3.203125 -18.890625 L 6.359375 -10.59375 L 12.453125 -19.140625 C 12.648438 -19.398438 12.941406 -19.53125 13.328125 -19.53125 C 13.910156 -19.53125 14.203125 -19.320312 14.203125 -18.90625 C 14.203125 -18.632812 14.117188 -18.394531 13.953125 -18.1875 L 6.984375 -8.8125 L 5.9375 -0.40625 C 5.875 0.0703125 5.570312 0.3125 5.03125 0.3125 C 4.488281 0.3125 4.21875 0.140625 4.21875 -0.203125 C 4.21875 -0.304688 4.222656 -0.414062 4.234375 -0.53125 L 5.25 -8.875 Z M 1.34375 -18.796875 "/></g></g></g><g fill="#ffffff" fill-opacity="1"><g transform="translate(207.541876, 215.060611)"><g/></g></g><g fill="#ffffff" fill-opacity="1"><g transform="translate(213.812334, 215.060611)"><g><path d="M 3 -0.40625 C 2.9375 0.0703125 2.632812 0.3125 2.09375 0.3125 C 1.550781 0.3125 1.28125 0.101562 1.28125 -0.3125 C 1.28125 -0.351562 2.035156 -6.523438 3.546875 -18.828125 C 3.597656 -19.296875 3.898438 -19.53125 4.453125 -19.53125 C 5.003906 -19.53125 5.28125 -19.351562 5.28125 -19 C 5.28125 -18.957031 4.519531 -12.757812 3 -0.40625 Z M 3 -0.40625 "/></g></g></g><g fill="#ffffff" fill-opacity="1"><g transform="translate(220.373918, 215.060611)"><g><path d="M 1.5 0.3125 C 1.25 0.3125 1.070312 0.273438 0.96875 0.203125 C 0.863281 0.140625 0.8125 0.015625 0.8125 -0.171875 L 0.8125 -0.34375 L 3.859375 -18.84375 C 3.941406 -19.332031 4.320312 -19.578125 5 -19.578125 L 5.25 -19.578125 C 5.488281 -19.578125 5.703125 -19.507812 5.890625 -19.375 C 6.085938 -19.25 6.207031 -19.070312 6.25 -18.84375 L 9.171875 -3.21875 L 15.65625 -18.84375 C 15.84375 -19.300781 16.210938 -19.53125 16.765625 -19.53125 L 17.15625 -19.53125 C 17.757812 -19.53125 18.0625 -19.300781 18.0625 -18.84375 L 16.640625 -0.34375 C 16.597656 0.09375 16.285156 0.3125 15.703125 0.3125 C 15.429688 0.3125 15.238281 0.265625 15.125 0.171875 C 15.019531 0.0859375 14.96875 -0.0820312 14.96875 -0.34375 L 16.21875 -16.15625 L 9.96875 -0.625 C 9.800781 -0.207031 9.457031 0 8.9375 0 C 8.726562 0 8.519531 -0.046875 8.3125 -0.140625 C 8.101562 -0.242188 7.976562 -0.40625 7.9375 -0.625 L 5.046875 -16.21875 L 2.515625 -0.34375 C 2.429688 0.09375 2.09375 0.3125 1.5 0.3125 Z M 1.5 0.3125 "/></g></g></g><g fill="#ffffff" fill-opacity="1"><g transform="translate(240.036274, 215.060611)"><g><path d="M 3 -0.40625 C 2.9375 0.0703125 2.632812 0.3125 2.09375 0.3125 C 1.550781 0.3125 1.28125 0.125 1.28125 -0.25 C 1.28125 -0.28125 2.035156 -6.421875 3.546875 -18.671875 C 3.585938 -18.960938 3.8125 -19.140625 4.21875 -19.203125 C 6.226562 -19.421875 7.640625 -19.53125 8.453125 -19.53125 C 10.253906 -19.53125 11.6875 -19.113281 12.75 -18.28125 C 13.8125 -17.445312 14.34375 -16.238281 14.34375 -14.65625 C 14.34375 -13.53125 14.078125 -12.539062 13.546875 -11.6875 C 13.015625 -10.84375 12.289062 -10.171875 11.375 -9.671875 C 9.582031 -8.703125 7.394531 -8.21875 4.8125 -8.21875 C 4.425781 -8.21875 4.132812 -8.226562 3.9375 -8.25 Z M 12.53125 -14.65625 C 12.53125 -15.789062 12.164062 -16.648438 11.4375 -17.234375 C 10.71875 -17.828125 9.773438 -18.125 8.609375 -18.125 C 7.441406 -18.125 6.289062 -18.050781 5.15625 -17.90625 L 4.171875 -9.796875 C 9.742188 -9.796875 12.53125 -11.414062 12.53125 -14.65625 Z M 12.53125 -14.65625 "/></g></g></g><g fill="#ffffff" fill-opacity="1"><g transform="translate(254.458311, 215.060611)"><g><path d="M 14.15625 -17.328125 C 14.625 -16.640625 14.960938 -15.859375 15.171875 -14.984375 C 15.390625 -14.117188 15.5 -13.195312 15.5 -12.21875 C 15.5 -11.238281 15.4375 -10.289062 15.3125 -9.375 C 15.1875 -8.46875 14.988281 -7.546875 14.71875 -6.609375 C 14.445312 -5.671875 14.085938 -4.789062 13.640625 -3.96875 C 13.191406 -3.144531 12.671875 -2.410156 12.078125 -1.765625 C 11.484375 -1.128906 10.757812 -0.625 9.90625 -0.25 C 9.050781 0.125 8.09375 0.3125 7.03125 0.3125 C 5.96875 0.3125 5.03125 0.117188 4.21875 -0.265625 C 3.40625 -0.648438 2.757812 -1.195312 2.28125 -1.90625 C 1.382812 -3.25 0.9375 -5.007812 0.9375 -7.1875 C 0.9375 -9.507812 1.328125 -11.6875 2.109375 -13.71875 C 2.535156 -14.820312 3.054688 -15.796875 3.671875 -16.640625 C 4.296875 -17.492188 5.09375 -18.1875 6.0625 -18.71875 C 7.039062 -19.257812 8.109375 -19.53125 9.265625 -19.53125 C 10.421875 -19.53125 11.410156 -19.335938 12.234375 -18.953125 C 13.054688 -18.566406 13.695312 -18.023438 14.15625 -17.328125 Z M 7.390625 -1.125 C 8.273438 -1.125 9.097656 -1.390625 9.859375 -1.921875 C 10.617188 -2.460938 11.234375 -3.132812 11.703125 -3.9375 C 12.171875 -4.75 12.566406 -5.671875 12.890625 -6.703125 C 13.441406 -8.523438 13.71875 -10.367188 13.71875 -12.234375 C 13.71875 -13.828125 13.390625 -15.1875 12.734375 -16.3125 C 12.398438 -16.894531 11.925781 -17.347656 11.3125 -17.671875 C 10.695312 -18.003906 9.945312 -18.171875 9.0625 -18.171875 C 8.1875 -18.171875 7.367188 -17.898438 6.609375 -17.359375 C 5.847656 -16.828125 5.234375 -16.15625 4.765625 -15.34375 C 4.296875 -14.539062 3.898438 -13.625 3.578125 -12.59375 C 3.023438 -10.769531 2.75 -8.925781 2.75 -7.0625 C 2.75 -5.457031 3.070312 -4.097656 3.71875 -2.984375 C 4.4375 -1.742188 5.660156 -1.125 7.390625 -1.125 Z M 7.390625 -1.125 "/></g></g></g><g fill="#ffffff" fill-opacity="1"><g transform="translate(270.89586, 215.060611)"><g><path d="M 2.109375 0.3125 C 1.554688 0.3125 1.28125 0.125 1.28125 -0.25 L 1.28125 -0.34375 L 3.546875 -18.6875 C 3.585938 -18.988281 3.785156 -19.160156 4.140625 -19.203125 C 5.242188 -19.421875 6.695312 -19.53125 8.5 -19.53125 C 10.3125 -19.53125 11.738281 -19.164062 12.78125 -18.4375 C 13.832031 -17.707031 14.359375 -16.625 14.359375 -15.1875 C 14.359375 -13.976562 13.929688 -12.925781 13.078125 -12.03125 C 12.234375 -11.132812 11.070312 -10.546875 9.59375 -10.265625 C 10.570312 -9.847656 11.332031 -9.039062 11.875 -7.84375 C 12.125 -7.25 12.363281 -6.585938 12.59375 -5.859375 C 12.832031 -5.128906 12.984375 -4.6875 13.046875 -4.53125 L 14.421875 -0.46875 C 14.441406 -0.425781 14.453125 -0.335938 14.453125 -0.203125 C 14.453125 -0.078125 14.363281 0.0351562 14.1875 0.140625 C 14.019531 0.253906 13.8125 0.3125 13.5625 0.3125 C 13.09375 0.3125 12.804688 0.148438 12.703125 -0.171875 L 11.140625 -4.796875 C 10.734375 -5.992188 10.367188 -6.929688 10.046875 -7.609375 C 9.722656 -8.285156 9.34375 -8.765625 8.90625 -9.046875 C 8.46875 -9.335938 7.71875 -9.484375 6.65625 -9.484375 L 4.09375 -9.484375 L 2.984375 -0.296875 C 2.953125 -0.0664062 2.867188 0.0859375 2.734375 0.171875 C 2.597656 0.265625 2.390625 0.3125 2.109375 0.3125 Z M 6.921875 -10.953125 C 8.117188 -10.953125 9.316406 -11.265625 10.515625 -11.890625 C 11.109375 -12.210938 11.59375 -12.65625 11.96875 -13.21875 C 12.351562 -13.789062 12.546875 -14.429688 12.546875 -15.140625 C 12.546875 -16.085938 12.148438 -16.828125 11.359375 -17.359375 C 10.578125 -17.898438 9.597656 -18.171875 8.421875 -18.171875 C 7.242188 -18.171875 6.15625 -18.082031 5.15625 -17.90625 L 4.296875 -10.953125 Z M 6.921875 -10.953125 "/></g></g></g><g fill="#ffffff" fill-opacity="1"><g transform="translate(286.549603, 215.060611)"><g><path d="M 11.828125 -17.859375 L 7.5 -17.859375 L 5.359375 -0.40625 C 5.296875 0.0703125 4.988281 0.3125 4.4375 0.3125 C 3.894531 0.3125 3.625 0.101562 3.625 -0.3125 C 3.625 -0.375 4.34375 -6.222656 5.78125 -17.859375 L 1.546875 -17.859375 C 1.054688 -17.859375 0.8125 -18.050781 0.8125 -18.4375 C 0.8125 -18.988281 1.085938 -19.265625 1.640625 -19.265625 L 11.921875 -19.265625 C 12.398438 -19.265625 12.640625 -19.066406 12.640625 -18.671875 C 12.640625 -18.128906 12.367188 -17.859375 11.828125 -17.859375 Z M 11.828125 -17.859375 "/></g></g></g><g fill="#ffffff" fill-opacity="1"><g transform="translate(298.082763, 215.060611)"><g><path d="M 8.25 -19.53125 C 9.351562 -19.53125 10.375 -19.257812 11.3125 -18.71875 C 12.257812 -18.1875 12.734375 -17.660156 12.734375 -17.140625 C 12.734375 -16.628906 12.519531 -16.375 12.09375 -16.375 C 11.832031 -16.375 11.367188 -16.664062 10.703125 -17.25 C 10.453125 -17.476562 10.085938 -17.679688 9.609375 -17.859375 C 9.128906 -18.035156 8.597656 -18.125 8.015625 -18.125 C 6.910156 -18.125 6.019531 -17.820312 5.34375 -17.21875 C 4.664062 -16.613281 4.328125 -15.796875 4.328125 -14.765625 C 4.328125 -13.640625 5.191406 -12.445312 6.921875 -11.1875 C 7.640625 -10.65625 8.359375 -10.101562 9.078125 -9.53125 C 9.796875 -8.96875 10.40625 -8.296875 10.90625 -7.515625 C 11.414062 -6.742188 11.671875 -5.921875 11.671875 -5.046875 C 11.671875 -3.378906 11.128906 -2.066406 10.046875 -1.109375 C 8.960938 -0.160156 7.566406 0.3125 5.859375 0.3125 C 4.160156 0.3125 2.773438 -0.148438 1.703125 -1.078125 C 1.347656 -1.378906 1.035156 -1.75 0.765625 -2.1875 C 0.503906 -2.625 0.375 -3 0.375 -3.3125 C 0.375 -3.925781 0.613281 -4.234375 1.09375 -4.234375 C 1.257812 -4.234375 1.398438 -4.175781 1.515625 -4.0625 C 1.628906 -3.957031 1.753906 -3.753906 1.890625 -3.453125 C 2.035156 -3.148438 2.144531 -2.941406 2.21875 -2.828125 C 3.007812 -1.691406 4.175781 -1.125 5.71875 -1.125 C 6.9375 -1.125 7.929688 -1.476562 8.703125 -2.1875 C 9.484375 -2.894531 9.875 -3.816406 9.875 -4.953125 C 9.875 -6.128906 9.007812 -7.367188 7.28125 -8.671875 C 6.5625 -9.210938 5.835938 -9.765625 5.109375 -10.328125 C 4.390625 -10.898438 3.773438 -11.5625 3.265625 -12.3125 C 2.765625 -13.0625 2.515625 -13.863281 2.515625 -14.71875 C 2.515625 -16.238281 3.054688 -17.421875 4.140625 -18.265625 C 5.222656 -19.109375 6.59375 -19.53125 8.25 -19.53125 Z M 8.25 -19.53125 "/></g></g></g><g transform="matrix(1, 0, 0, 1, 163, 220)"><g clip-path="url(#a15f7b20f9)"><g fill="#ffffff" fill-opacity="1"><g transform="translate(1.333084, 9.048932)"><g><path d="M 2.875 0.078125 C 2.195312 0.078125 1.679688 -0.09375 1.328125 -0.4375 C 0.972656 -0.789062 0.796875 -1.304688 0.796875 -1.984375 L 0.796875 -5.59375 L 1.453125 -5.59375 L 1.453125 -2 C 1.453125 -1.507812 1.566406 -1.140625 1.796875 -0.890625 C 2.035156 -0.648438 2.394531 -0.53125 2.875 -0.53125 C 3.832031 -0.53125 4.3125 -1.019531 4.3125 -2 L 4.3125 -5.59375 L 4.96875 -5.59375 L 4.96875 -1.984375 C 4.96875 -1.304688 4.789062 -0.789062 4.4375 -0.4375 C 4.082031 -0.09375 3.5625 0.078125 2.875 0.078125 Z M 2.875 0.078125 "/></g></g></g><g fill="#ffffff" fill-opacity="1"><g transform="translate(9.924087, 9.048932)"><g><path d="M 1.484375 0 L 0.84375 0 L 0.84375 -5.59375 L 1.65625 -5.59375 L 4.375 -1.3125 L 4.46875 -1.328125 L 4.46875 -5.59375 L 5.109375 -5.59375 L 5.109375 0 L 4.421875 0 L 1.578125 -4.5625 L 1.484375 -4.546875 Z M 1.484375 0 "/></g></g></g><g fill="#ffffff" fill-opacity="1"><g transform="translate(18.71378, 9.048932)"><g><path d="M 1.5 -5.59375 L 1.5 -0.546875 L 4.1875 -0.546875 L 4.1875 0 L 0.84375 0 L 0.84375 -5.59375 Z M 1.5 -5.59375 "/></g></g></g><g fill="#ffffff" fill-opacity="1"><g transform="translate(25.97508, 9.048932)"><g><path d="M 1.5 -2.640625 L 1.5 -0.546875 L 4.34375 -0.546875 L 4.34375 0 L 0.84375 0 L 0.84375 -5.59375 L 4.28125 -5.59375 L 4.28125 -5.046875 L 1.5 -5.046875 L 1.5 -3.171875 L 3.953125 -3.171875 L 3.953125 -2.640625 Z M 1.5 -2.640625 "/></g></g></g><g fill="#ffffff" fill-opacity="1"><g transform="translate(33.526775, 9.048932)"><g><path d="M 5.03125 0 L 4.328125 0 L 3.8125 -1.53125 L 1.421875 -1.53125 L 0.90625 0 L 0.21875 0 L 2.171875 -5.59375 L 3.078125 -5.59375 Z M 2.578125 -4.90625 L 1.609375 -2.078125 L 3.625 -2.078125 L 2.671875 -4.90625 Z M 2.578125 -4.90625 "/></g></g></g><g fill="#ffffff" fill-opacity="1"><g transform="translate(41.609586, 9.048932)"><g><path d="M 2.4375 0.078125 C 2.09375 0.078125 1.78125 0.03125 1.5 -0.0625 C 1.21875 -0.15625 0.984375 -0.28125 0.796875 -0.4375 C 0.609375 -0.59375 0.46875 -0.765625 0.375 -0.953125 L 0.734375 -1.390625 L 0.84375 -1.390625 C 1.1875 -0.804688 1.71875 -0.515625 2.4375 -0.515625 C 2.863281 -0.515625 3.175781 -0.601562 3.375 -0.78125 C 3.582031 -0.957031 3.6875 -1.203125 3.6875 -1.515625 C 3.6875 -1.691406 3.648438 -1.84375 3.578125 -1.96875 C 3.515625 -2.101562 3.40625 -2.210938 3.25 -2.296875 C 3.09375 -2.390625 2.882812 -2.46875 2.625 -2.53125 L 1.96875 -2.703125 C 1.476562 -2.816406 1.117188 -3 0.890625 -3.25 C 0.660156 -3.507812 0.546875 -3.835938 0.546875 -4.234375 C 0.546875 -4.503906 0.613281 -4.75 0.75 -4.96875 C 0.894531 -5.1875 1.101562 -5.359375 1.375 -5.484375 C 1.65625 -5.609375 1.988281 -5.671875 2.375 -5.671875 C 2.789062 -5.671875 3.144531 -5.609375 3.4375 -5.484375 C 3.726562 -5.367188 3.957031 -5.191406 4.125 -4.953125 L 3.8125 -4.53125 L 3.71875 -4.53125 C 3.550781 -4.71875 3.359375 -4.859375 3.140625 -4.953125 C 2.921875 -5.046875 2.664062 -5.09375 2.375 -5.09375 C 1.976562 -5.09375 1.679688 -5.015625 1.484375 -4.859375 C 1.296875 -4.710938 1.203125 -4.507812 1.203125 -4.25 C 1.203125 -4 1.269531 -3.796875 1.40625 -3.640625 C 1.550781 -3.492188 1.796875 -3.378906 2.140625 -3.296875 L 2.8125 -3.140625 C 3.351562 -3.015625 3.742188 -2.816406 3.984375 -2.546875 C 4.234375 -2.285156 4.359375 -1.953125 4.359375 -1.546875 C 4.359375 -1.222656 4.285156 -0.941406 4.140625 -0.703125 C 4.003906 -0.460938 3.789062 -0.269531 3.5 -0.125 C 3.21875 0.0078125 2.863281 0.078125 2.4375 0.078125 Z M 2.4375 0.078125 "/></g></g></g><g fill="#ffffff" fill-opacity="1"><g transform="translate(49.230059, 9.048932)"><g><path d="M 4.40625 -3.328125 L 4.40625 -5.59375 L 5.0625 -5.59375 L 5.0625 0 L 4.40625 0 L 4.40625 -2.765625 L 1.5 -2.765625 L 1.5 0 L 0.84375 0 L 0.84375 -5.59375 L 1.5 -5.59375 L 1.5 -3.328125 Z M 4.40625 -3.328125 "/></g></g></g><g fill="#ffffff" fill-opacity="1"><g transform="translate(57.97008, 9.048932)"><g/></g></g><g fill="#ffffff" fill-opacity="1"><g transform="translate(62.720994, 9.048932)"><g><path d="M 2.734375 0 L 2.078125 0 L 2.078125 -2.1875 L 0.140625 -5.59375 L 0.859375 -5.59375 L 2.375 -2.96875 L 2.46875 -2.96875 L 3.953125 -5.59375 L 4.65625 -5.59375 L 2.734375 -2.1875 Z M 2.734375 0 "/></g></g></g><g fill="#ffffff" fill-opacity="1"><g transform="translate(70.356751, 9.048932)"><g><path d="M 3.0625 0.078125 C 2.582031 0.078125 2.148438 -0.0234375 1.765625 -0.234375 C 1.390625 -0.441406 1.09375 -0.757812 0.875 -1.1875 C 0.664062 -1.613281 0.5625 -2.148438 0.5625 -2.796875 C 0.5625 -3.429688 0.664062 -3.960938 0.875 -4.390625 C 1.09375 -4.828125 1.390625 -5.148438 1.765625 -5.359375 C 2.148438 -5.566406 2.582031 -5.671875 3.0625 -5.671875 C 3.550781 -5.671875 3.984375 -5.566406 4.359375 -5.359375 C 4.734375 -5.148438 5.03125 -4.828125 5.25 -4.390625 C 5.46875 -3.960938 5.578125 -3.429688 5.578125 -2.796875 C 5.578125 -2.148438 5.46875 -1.613281 5.25 -1.1875 C 5.03125 -0.757812 4.734375 -0.441406 4.359375 -0.234375 C 3.984375 -0.0234375 3.550781 0.078125 3.0625 0.078125 Z M 3.0625 -0.53125 C 3.644531 -0.53125 4.09375 -0.707031 4.40625 -1.0625 C 4.71875 -1.425781 4.875 -2.003906 4.875 -2.796875 C 4.875 -3.578125 4.71875 -4.148438 4.40625 -4.515625 C 4.09375 -4.878906 3.644531 -5.0625 3.0625 -5.0625 C 1.863281 -5.0625 1.265625 -4.304688 1.265625 -2.796875 C 1.265625 -1.285156 1.863281 -0.53125 3.0625 -0.53125 Z M 3.0625 -0.53125 "/></g></g></g><g fill="#ffffff" fill-opacity="1"><g transform="translate(79.318388, 9.048932)"><g><path d="M 2.875 0.078125 C 2.195312 0.078125 1.679688 -0.09375 1.328125 -0.4375 C 0.972656 -0.789062 0.796875 -1.304688 0.796875 -1.984375 L 0.796875 -5.59375 L 1.453125 -5.59375 L 1.453125 -2 C 1.453125 -1.507812 1.566406 -1.140625 1.796875 -0.890625 C 2.035156 -0.648438 2.394531 -0.53125 2.875 -0.53125 C 3.832031 -0.53125 4.3125 -1.019531 4.3125 -2 L 4.3125 -5.59375 L 4.96875 -5.59375 L 4.96875 -1.984375 C 4.96875 -1.304688 4.789062 -0.789062 4.4375 -0.4375 C 4.082031 -0.09375 3.5625 0.078125 2.875 0.078125 Z M 2.875 0.078125 "/></g></g></g><g fill="#ffffff" fill-opacity="1"><g transform="translate(87.90939, 9.048932)"><g><path d="M 0.84375 0 L 0.84375 -5.59375 L 2.875 -5.59375 C 3.25 -5.59375 3.5625 -5.53125 3.8125 -5.40625 C 4.070312 -5.28125 4.265625 -5.101562 4.390625 -4.875 C 4.515625 -4.65625 4.578125 -4.390625 4.578125 -4.078125 C 4.578125 -3.734375 4.488281 -3.445312 4.3125 -3.21875 C 4.144531 -2.988281 3.878906 -2.820312 3.515625 -2.71875 L 3.515625 -2.640625 C 3.691406 -2.566406 3.835938 -2.453125 3.953125 -2.296875 C 4.066406 -2.140625 4.171875 -1.910156 4.265625 -1.609375 L 4.796875 0 L 4.109375 0 L 3.5625 -1.703125 C 3.488281 -1.910156 3.410156 -2.070312 3.328125 -2.1875 C 3.242188 -2.300781 3.132812 -2.378906 3 -2.421875 C 2.863281 -2.472656 2.691406 -2.5 2.484375 -2.5 L 1.5 -2.5 L 1.5 0 Z M 2.859375 -3.0625 C 3.203125 -3.0625 3.457031 -3.140625 3.625 -3.296875 C 3.800781 -3.460938 3.890625 -3.710938 3.890625 -4.046875 C 3.890625 -4.378906 3.800781 -4.625 3.625 -4.78125 C 3.457031 -4.945312 3.203125 -5.03125 2.859375 -5.03125 L 1.5 -5.03125 L 1.5 -3.0625 Z M 2.859375 -3.0625 "/></g></g></g><g fill="#ffffff" fill-opacity="1"><g transform="translate(95.915782, 9.048932)"><g/></g></g><g fill="#ffffff" fill-opacity="1"><g transform="translate(100.666697, 9.048932)"><g><path d="M 2.65625 -5.59375 C 3.21875 -5.59375 3.703125 -5.488281 4.109375 -5.28125 C 4.515625 -5.082031 4.828125 -4.773438 5.046875 -4.359375 C 5.265625 -3.941406 5.375 -3.421875 5.375 -2.796875 C 5.375 -2.171875 5.265625 -1.648438 5.046875 -1.234375 C 4.828125 -0.816406 4.515625 -0.503906 4.109375 -0.296875 C 3.703125 -0.0976562 3.21875 0 2.65625 0 L 0.84375 0 L 0.84375 -5.59375 Z M 2.59375 -0.5625 C 3.050781 -0.5625 3.429688 -0.632812 3.734375 -0.78125 C 4.046875 -0.925781 4.28125 -1.160156 4.4375 -1.484375 C 4.59375 -1.816406 4.671875 -2.253906 4.671875 -2.796875 C 4.671875 -3.335938 4.59375 -3.769531 4.4375 -4.09375 C 4.28125 -4.425781 4.046875 -4.664062 3.734375 -4.8125 C 3.429688 -4.957031 3.050781 -5.03125 2.59375 -5.03125 L 1.5 -5.03125 L 1.5 -0.5625 Z M 2.59375 -0.5625 "/></g></g></g><g fill="#ffffff" fill-opacity="1"><g transform="translate(109.437285, 9.048932)"><g><path d="M 0.84375 0 L 0.84375 -5.59375 L 2.875 -5.59375 C 3.25 -5.59375 3.5625 -5.53125 3.8125 -5.40625 C 4.070312 -5.28125 4.265625 -5.101562 4.390625 -4.875 C 4.515625 -4.65625 4.578125 -4.390625 4.578125 -4.078125 C 4.578125 -3.734375 4.488281 -3.445312 4.3125 -3.21875 C 4.144531 -2.988281 3.878906 -2.820312 3.515625 -2.71875 L 3.515625 -2.640625 C 3.691406 -2.566406 3.835938 -2.453125 3.953125 -2.296875 C 4.066406 -2.140625 4.171875 -1.910156 4.265625 -1.609375 L 4.796875 0 L 4.109375 0 L 3.5625 -1.703125 C 3.488281 -1.910156 3.410156 -2.070312 3.328125 -2.1875 C 3.242188 -2.300781 3.132812 -2.378906 3 -2.421875 C 2.863281 -2.472656 2.691406 -2.5 2.484375 -2.5 L 1.5 -2.5 L 1.5 0 Z M 2.859375 -3.0625 C 3.203125 -3.0625 3.457031 -3.140625 3.625 -3.296875 C 3.800781 -3.460938 3.890625 -3.710938 3.890625 -4.046875 C 3.890625 -4.378906 3.800781 -4.625 3.625 -4.78125 C 3.457031 -4.945312 3.203125 -5.03125 2.859375 -5.03125 L 1.5 -5.03125 L 1.5 -3.0625 Z M 2.859375 -3.0625 "/></g></g></g><g fill="#ffffff" fill-opacity="1"><g transform="translate(117.443677, 9.048932)"><g><path d="M 1.5 -2.640625 L 1.5 -0.546875 L 4.34375 -0.546875 L 4.34375 0 L 0.84375 0 L 0.84375 -5.59375 L 4.28125 -5.59375 L 4.28125 -5.046875 L 1.5 -5.046875 L 1.5 -3.171875 L 3.953125 -3.171875 L 3.953125 -2.640625 Z M 1.5 -2.640625 "/></g></g></g><g fill="#ffffff" fill-opacity="1"><g transform="translate(124.995372, 9.048932)"><g><path d="M 5.03125 0 L 4.328125 0 L 3.8125 -1.53125 L 1.421875 -1.53125 L 0.90625 0 L 0.21875 0 L 2.171875 -5.59375 L 3.078125 -5.59375 Z M 2.578125 -4.90625 L 1.609375 -2.078125 L 3.625 -2.078125 L 2.671875 -4.90625 Z M 2.578125 -4.90625 "/></g></g></g><g fill="#ffffff" fill-opacity="1"><g transform="translate(133.078183, 9.048932)"><g><path d="M 1.453125 0 L 0.84375 0 L 0.84375 -5.59375 L 1.8125 -5.59375 L 3.515625 -0.859375 L 3.59375 -0.859375 L 5.28125 -5.59375 L 6.234375 -5.59375 L 6.234375 0 L 5.609375 0 L 5.609375 -4.5625 L 5.515625 -4.578125 L 3.859375 0 L 3.203125 0 L 1.546875 -4.578125 L 1.453125 -4.5625 Z M 1.453125 0 "/></g></g></g><g fill="#ffffff" fill-opacity="1"><g transform="translate(142.983603, 9.048932)"><g><path d="M 2.4375 0.078125 C 2.09375 0.078125 1.78125 0.03125 1.5 -0.0625 C 1.21875 -0.15625 0.984375 -0.28125 0.796875 -0.4375 C 0.609375 -0.59375 0.46875 -0.765625 0.375 -0.953125 L 0.734375 -1.390625 L 0.84375 -1.390625 C 1.1875 -0.804688 1.71875 -0.515625 2.4375 -0.515625 C 2.863281 -0.515625 3.175781 -0.601562 3.375 -0.78125 C 3.582031 -0.957031 3.6875 -1.203125 3.6875 -1.515625 C 3.6875 -1.691406 3.648438 -1.84375 3.578125 -1.96875 C 3.515625 -2.101562 3.40625 -2.210938 3.25 -2.296875 C 3.09375 -2.390625 2.882812 -2.46875 2.625 -2.53125 L 1.96875 -2.703125 C 1.476562 -2.816406 1.117188 -3 0.890625 -3.25 C 0.660156 -3.507812 0.546875 -3.835938 0.546875 -4.234375 C 0.546875 -4.503906 0.613281 -4.75 0.75 -4.96875 C 0.894531 -5.1875 1.101562 -5.359375 1.375 -5.484375 C 1.65625 -5.609375 1.988281 -5.671875 2.375 -5.671875 C 2.789062 -5.671875 3.144531 -5.609375 3.4375 -5.484375 C 3.726562 -5.367188 3.957031 -5.191406 4.125 -4.953125 L 3.8125 -4.53125 L 3.71875 -4.53125 C 3.550781 -4.71875 3.359375 -4.859375 3.140625 -4.953125 C 2.921875 -5.046875 2.664062 -5.09375 2.375 -5.09375 C 1.976562 -5.09375 1.679688 -5.015625 1.484375 -4.859375 C 1.296875 -4.710938 1.203125 -4.507812 1.203125 -4.25 C 1.203125 -4 1.269531 -3.796875 1.40625 -3.640625 C 1.550781 -3.492188 1.796875 -3.378906 2.140625 -3.296875 L 2.8125 -3.140625 C 3.351562 -3.015625 3.742188 -2.816406 3.984375 -2.546875 C 4.234375 -2.285156 4.359375 -1.953125 4.359375 -1.546875 C 4.359375 -1.222656 4.285156 -0.941406 4.140625 -0.703125 C 4.003906 -0.460938 3.789062 -0.269531 3.5 -0.125 C 3.21875 0.0078125 2.863281 0.078125 2.4375 0.078125 Z M 2.4375 0.078125 "/></g></g></g></g></g></svg>